<?xml version="1.0" encoding="UTF-8"?>
<svg id="katman_1" xmlns="http://www.w3.org/2000/svg" version="1.1" xmlns:xlink="http://www.w3.org/1999/xlink" viewBox="0 0 443.8 418.2">
  <!-- Generator: Adobe Illustrator 29.3.1, SVG Export Plug-In . SVG Version: 2.1.0 Build 151)  -->
  <defs>
    <style>
      .st0 {
        fill: url(#Adsız_degrade_3);
      }

      .st1 {
        fill: url(#Adsız_degrade_4);
      }

      .st2 {
        fill: #0078d4;
      }

      .st3 {
        fill: url(#Adsız_degrade_2);
      }
    </style>
    <linearGradient id="Adsız_degrade_4" data-name="Adsız degrade 4" x1="196.3" y1="384.9" x2="62.4" y2="-10.6" gradientTransform="translate(0 419.1) scale(1 -1)" gradientUnits="userSpaceOnUse">
      <stop offset="0" stop-color="#114a8b"/>
      <stop offset="1" stop-color="#0669bc"/>
    </linearGradient>
    <linearGradient id="Adsız_degrade_2" data-name="Adsız degrade 2" x1="238.1" y1="200.6" x2="207.2" y2="190.1" gradientTransform="translate(0 419.1) scale(1 -1)" gradientUnits="userSpaceOnUse">
      <stop offset="0" stop-color="#000" stop-opacity=".3"/>
      <stop offset="0" stop-color="#000" stop-opacity=".2"/>
      <stop offset=".3" stop-color="#000" stop-opacity=".1"/>
      <stop offset=".6" stop-color="#000" stop-opacity="0"/>
      <stop offset="1" stop-color="#000" stop-opacity="0"/>
    </linearGradient>
    <linearGradient id="Adsız_degrade_3" data-name="Adsız degrade 3" x1="222.1" y1="396.8" x2="369" y2="5.3" gradientTransform="translate(0 419.1) scale(1 -1)" gradientUnits="userSpaceOnUse">
      <stop offset="0" stop-color="#3ccbf4"/>
      <stop offset="1" stop-color="#2892df"/>
    </linearGradient>
  </defs>
  <path class="st1" d="M149.3,3.9h128.9l-133.8,396.5c-1.4,4.1-4,7.6-7.5,10.1-3.5,2.5-7.7,3.9-12,3.9H24.6c-3.3,0-6.5-.8-9.4-2.3-2.9-1.5-5.4-3.6-7.3-6.3-1.9-2.6-3.1-5.7-3.6-8.9-.5-3.2-.2-6.5.9-9.6L129.9,17.9c1.4-4.1,4-7.6,7.5-10.1,3.5-2.5,7.7-3.9,12-3.9Z"/>
  <path class="st2" d="M336.6,269.8h-204.4c-1.9,0-3.8.6-5.3,1.6-1.6,1.1-2.8,2.6-3.5,4.4-.7,1.8-.8,3.7-.4,5.6.4,1.9,1.4,3.5,2.8,4.8l131.4,122.6c3.8,3.6,8.9,5.6,14.1,5.6h115.7l-50.3-144.5Z"/>
  <path class="st3" d="M149.3,3.9c-4.3,0-8.6,1.4-12.1,3.9-3.5,2.6-6.1,6.2-7.4,10.3L5.4,386.9c-1.1,3.1-1.5,6.4-1,9.7.4,3.3,1.7,6.4,3.6,9.1,1.9,2.7,4.4,4.9,7.3,6.4,2.9,1.5,6.2,2.3,9.5,2.3h102.9c3.8-.7,7.4-2.4,10.4-4.9,3-2.5,5.2-5.8,6.5-9.5l24.8-73.1,88.7,82.7c3.7,3.1,8.4,4.8,13.2,4.8h115.3l-50.6-144.5h-147.4S278.7,3.9,278.7,3.9h-129.4Z"/>
  <path class="st0" d="M314,17.8c-1.4-4.1-4-7.6-7.5-10.1-3.5-2.5-7.7-3.9-12-3.9h-143.7c4.3,0,8.5,1.3,12,3.9s6.1,6,7.5,10.1l124.7,369.4c1,3.1,1.3,6.4.9,9.6-.5,3.2-1.7,6.3-3.6,8.9-1.9,2.6-4.4,4.8-7.3,6.3-2.9,1.5-6.1,2.3-9.4,2.3h143.7c3.3,0,6.5-.8,9.4-2.3,2.9-1.5,5.4-3.6,7.3-6.3,1.9-2.6,3.1-5.7,3.6-8.9.5-3.2.2-6.5-.9-9.6L314,17.8Z"/>
</svg>